<svg width="200" height="130" viewBox="0 0 200 130" fill="none" xmlns="http://www.w3.org/2000/svg">
<rect width="200" height="130" fill="#94A092"/>
<ellipse cx="95.696" cy="105.541" rx="16.8874" ry="11.0567" fill="#D9D9D9"/>
<rect x="11.2588" y="12.0618" width="23.4798" height="9.13777" fill="black" fill-opacity="0.39"/>
<rect x="56.4121" y="12.0618" width="23.4798" height="9.13777" fill="black" fill-opacity="0.39"/>
<rect x="101.565" y="12.0618" width="23.4798" height="9.13777" fill="black" fill-opacity="0.39"/>
<rect x="146.719" y="12.0618" width="23.4798" height="9.13777" fill="black" fill-opacity="0.39"/>
<rect x="11.2588" y="25.4639" width="35.5208" height="6.70103" fill="black" fill-opacity="0.39"/>
<rect x="11.2588" y="45.567" width="29.1391" height="3.35052" fill="black" fill-opacity="0.39"/>
<rect x="74.1729" y="45.567" width="29.1391" height="5.36082" fill="black" fill-opacity="0.39"/>
<rect x="152.318" y="65.0001" width="29.1391" height="5.36082" fill="black" fill-opacity="0.39"/>
<rect x="11.2588" y="89.1237" width="56.2914" height="3.35052" fill="black" fill-opacity="0.39"/>
<rect x="11.2588" y="101.186" width="74.1722" height="3.35052" fill="black" fill-opacity="0.39"/>
<rect x="11.2588" y="50.2578" width="35.7616" height="3.35052" fill="black" fill-opacity="0.39"/>
<rect x="74.1729" y="52.2681" width="35.7616" height="5.36082" fill="black" fill-opacity="0.39"/>
<rect x="152.318" y="71.701" width="9.27152" height="5.36082" fill="black" fill-opacity="0.39"/>
<rect x="74.1729" y="65.0001" width="72.8477" height="5.36082" fill="black" fill-opacity="0.39"/>
<rect x="74.1729" y="73.0413" width="43.0464" height="5.36082" fill="black" fill-opacity="0.39"/>
<rect x="74.1729" y="79.7422" width="31.1258" height="4.02062" fill="black" fill-opacity="0.39"/>
<rect x="74.1729" y="85.1031" width="31.1258" height="4.02062" fill="black" fill-opacity="0.39"/>
<rect x="11.2588" y="93.8144" width="35.7616" height="3.35052" fill="black" fill-opacity="0.39"/>
<rect x="56.4121" y="25.4639" width="35.5208" height="6.70103" fill="black" fill-opacity="0.39"/>
<rect x="101.565" y="25.4639" width="35.5208" height="6.70103" fill="black" fill-opacity="0.39"/>
<rect x="146.719" y="25.4639" width="35.5208" height="6.70103" fill="black" fill-opacity="0.39"/>
<line x1="9.93457" y1="39.899" x2="186.094" y2="39.899" stroke="white" stroke-width="0.614368"/>
<path d="M11.2588 71.0309L19.2058 61.6495V80.4124L11.2588 71.0309Z" fill="#A9CB65"/>
<rect x="25.8271" y="59.6392" width="28.4768" height="22.7835" rx="4.30058" fill="#CAAC4C"/>
<g clip-path="url(#clip0_480_618)">
<path fill-rule="evenodd" clip-rule="evenodd" d="M51.3876 108.788C51.2695 108.766 51.1462 108.775 51.0371 108.848C50.8102 109.001 50.7667 109.249 50.7166 109.435C50.63 109.755 50.6615 110.075 50.6866 110.359C50.7368 110.93 50.9296 111.449 51.015 111.955C51.0661 112.257 51.1111 112.562 51.1513 112.866C50.9941 113.245 50.8317 113.622 50.672 113.989C50.3041 114.834 49.8815 115.659 49.4766 116.498C49.0462 117.391 48.6522 118.293 48.1837 119.146C47.8539 119.747 47.6619 120.135 47.3208 120.573C47.2166 120.706 47.0384 120.897 46.9638 120.932C46.8893 120.968 46.8383 120.972 46.8052 120.96C46.78 120.951 46.7521 120.924 46.7178 120.847C46.6834 120.77 46.6545 120.662 46.6146 120.553C46.4499 120.106 46.3837 119.61 46.358 119.114C46.3451 118.865 46.3682 118.61 46.3922 118.353C46.6059 117.767 46.827 117.183 47.0554 116.6C47.4604 115.568 47.9267 114.553 48.3427 113.51C48.563 112.958 48.8496 112.403 48.9999 111.783C49.0313 111.653 49.088 111.496 49.1234 111.325C49.1587 111.155 49.1735 110.958 49.0869 110.769C48.9855 110.547 48.7745 110.417 48.5468 110.401C48.206 110.377 47.9385 110.597 47.7437 110.772C47.4432 111.043 47.2874 111.409 47.1376 111.723C46.9092 112.202 46.7578 112.709 46.6301 113.21C46.4448 113.937 46.3376 114.678 46.2491 115.413C46.1761 116.019 46.1673 116.621 46.1252 117.209C46.1003 117.557 46.0546 117.916 46.0196 118.28C45.8895 118.638 45.7587 118.997 45.6394 119.36C45.6 119.48 45.5718 119.6 45.5348 119.72C45.449 119.475 45.3418 119.25 45.2728 119.045C45.1952 118.816 45.1073 118.611 45.0751 118.415C45.0433 118.221 45.059 117.705 45.059 117.705C45.0677 117.5 44.7959 117.427 44.7048 117.611C44.7048 117.611 44.2427 118.539 43.9559 119.004C43.8958 119.102 43.6911 119.37 43.5884 119.5C43.6196 119.321 43.7879 118.782 43.8074 118.643C43.8666 118.221 44.0125 117.799 43.8969 117.634C43.8264 117.534 43.6358 117.43 43.5348 117.607C43.5348 117.607 43.1403 118.3 42.9475 118.656C42.7917 118.943 42.6845 119.155 42.495 119.519C42.6399 118.693 42.8876 117.87 43.0318 117.01C43.0894 116.666 43.3038 116.232 43.1673 115.767C43.1458 115.694 43.1132 115.611 43.0566 115.533C43.0001 115.454 42.9062 115.366 42.771 115.359C42.7513 115.358 42.7346 115.364 42.7156 115.365C42.786 115.085 42.8611 114.806 42.917 114.523C42.9851 114.177 43.1452 113.767 43.0512 113.327C42.9948 113.063 42.8618 112.817 42.5845 112.655C42.3365 112.509 42.0684 112.575 41.8748 112.62C41.4502 112.717 41.0988 112.898 40.7737 113.125C40.2108 113.519 39.6893 113.991 39.2524 114.532C38.9914 114.855 38.7761 115.207 38.5776 115.568C38.4708 115.426 38.3517 115.293 38.2015 115.188C37.7134 114.849 37.1027 114.886 36.6042 114.875C36.011 114.861 35.4205 114.963 34.859 115.119C33.9487 115.371 33.0913 115.779 32.268 116.213C31.3163 116.715 30.5152 117.255 29.6566 117.905C29.0481 118.365 28.2057 119.214 28.1331 119.302C27.9202 119.561 28.0679 119.82 28.3037 119.601C28.3872 119.523 29.2106 118.687 29.7729 118.262C30.6173 117.623 31.5084 117.044 32.4399 116.553C33.2541 116.124 34.0883 115.728 34.9569 115.488C35.4944 115.339 36.0506 115.244 36.5957 115.257C37.1112 115.269 37.6404 115.261 37.9906 115.504C38.1456 115.612 38.2709 115.771 38.3798 115.951C38.3165 116.077 38.2455 116.2 38.1859 116.326C37.8998 116.931 37.6718 117.567 37.5012 118.215C37.2576 119.14 37.1132 120.089 37.0242 121.037C36.9635 121.682 36.8872 122.387 36.9901 123.102C37.0102 123.242 37.0713 123.431 37.154 123.606C37.1954 123.694 37.2468 123.78 37.3229 123.852C37.3989 123.924 37.5067 123.98 37.6258 123.984C37.7424 123.989 37.852 123.94 37.9282 123.874C38.0045 123.808 38.0555 123.728 38.0983 123.648C38.1838 123.488 38.2516 123.319 38.2891 123.21C38.5607 122.422 38.7692 121.695 38.9182 120.946C39.0809 120.129 39.2094 119.293 39.2272 118.448C39.2397 117.852 39.2711 117.207 39.0719 116.593C39.0035 116.383 38.9109 116.161 38.8047 115.947C39.0222 115.532 39.2552 115.129 39.5415 114.775C39.9533 114.265 40.4489 113.816 40.9858 113.44C41.3044 113.217 41.6199 113.07 41.9571 112.992C42.1377 112.951 42.3133 112.936 42.3979 112.986C42.5257 113.061 42.642 113.207 42.6851 113.409C42.7477 113.702 42.6265 114.058 42.5498 114.447C42.4736 114.835 42.3779 115.218 42.2743 115.6C42.2449 115.631 42.207 115.656 42.1818 115.688C42.0467 115.859 41.941 116.05 41.8462 116.169C41.4764 116.633 41.2018 117.158 40.9431 117.67C40.5809 118.386 40.2517 119.131 40.011 119.907C39.8931 120.288 39.7798 120.583 39.7453 120.915C39.7173 121.184 39.947 121.241 40.108 121.15C40.269 121.059 40.337 120.936 40.4626 120.769C40.7316 120.411 40.9537 120.023 41.1527 119.631C41.5664 118.817 41.9088 117.966 42.2055 117.105C42.3554 116.67 42.4925 116.229 42.6156 115.784C42.6573 115.755 42.6976 115.741 42.7397 115.741C42.7376 115.739 42.7401 115.74 42.7503 115.741C42.7467 115.74 42.7432 115.741 42.7397 115.741C42.7413 115.743 42.7455 115.746 42.7543 115.758C42.7738 115.786 42.7966 115.836 42.8085 115.877C42.8902 116.155 42.733 116.524 42.6625 116.945C42.5179 117.808 42.2492 118.666 42.1023 119.565C42.0492 119.89 41.9701 120.319 41.9564 120.472C41.9377 120.68 42.284 120.819 42.3792 120.634C42.4492 120.498 42.9599 119.422 43.2755 118.84C43.3193 118.76 43.3529 118.703 43.4118 118.597C43.3964 118.735 43.3762 118.847 43.351 118.97C43.29 119.269 43.1364 119.66 43.1325 119.858C43.127 120.134 43.4196 120.369 43.6503 120.126C43.7848 119.984 44.0396 119.586 44.2729 119.208C44.446 118.927 44.5422 118.719 44.7018 118.41C44.7044 118.432 44.7024 118.458 44.7057 118.478C44.7484 118.738 44.8485 118.962 44.9188 119.17C45.0387 119.524 45.2219 119.813 45.2619 120.095C45.2835 120.247 45.2904 120.401 45.2925 120.557C45.164 121.017 45.0294 121.481 44.893 121.934C44.7238 122.496 44.4895 123.059 44.3533 123.667C44.2574 124.095 44.1375 124.465 44.181 124.901C44.1933 125.024 44.4011 125.179 44.5248 125.023C44.6098 124.916 44.8622 124.5 44.9968 124.162C45.2343 123.565 45.3792 122.937 45.4811 122.313C45.5712 121.761 45.6738 121.184 45.6707 120.599C45.7752 120.226 45.8749 119.846 45.9948 119.481C46.0008 119.463 46.008 119.445 46.0141 119.426C46.0506 119.85 46.1136 120.279 46.264 120.687C46.2936 120.768 46.3235 120.886 46.3771 121.006C46.4307 121.125 46.5201 121.263 46.6819 121.321C46.8417 121.378 46.9983 121.337 47.1226 121.278C47.247 121.219 47.4318 121.023 47.5583 120.868C47.9384 120.403 48.2075 119.885 48.5105 119.333C48.9903 118.46 49.3867 117.55 49.8128 116.667C50.215 115.833 50.6376 114.961 51.0018 114.087C51.0804 113.898 51.1557 113.71 51.2291 113.521C51.2406 113.628 51.2524 113.735 51.2628 113.842C51.2981 114.205 51.3166 114.557 51.3443 114.938C51.3577 115.121 51.3671 115.321 51.3861 115.5C50.98 115.982 50.565 116.455 50.1703 116.965C49.9097 117.302 49.7389 117.54 49.4215 118.006C49.3377 118.129 49.3261 118.271 49.3411 118.395C49.356 118.519 49.4278 118.663 49.5151 118.768C49.6279 118.903 49.7652 119.012 49.9444 119.071C50.2133 119.161 50.5209 119.204 50.7983 119.11C51.0686 119.018 51.2526 118.817 51.4106 118.598C51.604 118.33 51.6387 118.025 51.6959 117.748C51.7797 117.343 51.8041 116.942 51.7999 116.556C51.7966 116.242 51.8073 115.927 51.7752 115.624C51.908 115.464 52.0453 115.311 52.1725 115.144C52.2092 115.096 52.2646 115.012 52.3036 114.96C52.2472 115.099 52.18 115.232 52.1361 115.378C52.0344 115.716 51.9678 116.075 51.9724 116.439C51.9743 116.594 51.9465 116.829 52.0971 117.037C52.1974 117.175 52.2865 117.314 52.5038 117.284C52.6802 117.26 52.8331 117.125 52.9179 117.022C53.0028 116.919 53.1052 116.824 53.1605 116.767C53.3382 116.584 53.6089 116.251 53.7803 116.046C53.7719 116.121 53.7263 116.304 53.7385 116.433C53.7463 116.517 53.7552 116.595 53.8118 116.674C53.8684 116.753 53.9536 116.833 54.076 116.856C54.2338 116.886 54.3671 116.814 54.4589 116.744C54.5507 116.675 54.6223 116.6 54.6744 116.558C54.9537 116.337 55.1782 116.067 55.3879 115.806C55.5203 115.641 55.6227 115.471 55.7178 115.321C55.772 115.391 55.8311 115.471 55.8451 115.503C55.9116 115.655 55.9153 115.867 55.9492 116.106C55.9718 116.265 55.9784 116.417 55.9978 116.574C55.9197 116.673 55.839 116.772 55.7646 116.869C55.5347 117.17 55.3229 117.488 55.1412 117.824C54.9071 118.257 54.6695 118.713 54.5344 119.215C54.4199 119.64 54.2436 120.144 54.3817 120.652C54.453 120.914 54.6156 121.187 54.8925 121.313C55.1085 121.412 55.3402 121.369 55.5231 121.273C55.7916 121.131 55.935 120.867 56.0422 120.648C56.2153 120.295 56.2495 119.913 56.2993 119.575C56.4131 118.801 56.4584 118.014 56.4419 117.232C56.438 117.047 56.4059 116.872 56.3862 116.692C56.5321 116.515 56.7555 116.322 56.9239 116.188C57.3478 115.851 57.765 115.612 58.2756 115.434C58.6415 115.306 59.0107 115.188 59.3258 115.247C59.41 115.263 59.5038 115.288 59.5699 115.321C59.8118 115.433 59.5529 115.734 59.4774 115.822C59.3326 115.984 59.1699 116.097 58.9831 116.243C58.7097 116.457 58.4662 116.628 58.1765 116.762C57.9584 116.862 57.8423 116.934 57.4877 116.968C57.2227 116.994 57.1941 117.23 57.4885 117.243C57.8465 117.259 57.9422 117.241 58.3333 117.091C58.7002 116.95 59.0029 116.746 59.2395 116.559C59.4247 116.414 59.6429 116.265 59.7944 116.068C59.8769 115.961 59.939 115.836 59.9783 115.706C60.0183 115.573 60.0807 115.46 60.0272 115.292C59.9764 115.133 59.8519 115.037 59.7345 114.978C59.6171 114.919 59.4956 114.89 59.394 114.871C58.9485 114.787 58.5208 114.945 58.1546 115.072C57.6053 115.263 57.1525 115.521 56.6935 115.887C56.5869 115.972 56.4274 116.1 56.3351 116.196C56.3284 116.149 56.3268 116.098 56.3201 116.051C56.2917 115.852 56.2976 115.6 56.1871 115.347C56.1342 115.227 56.05 115.123 55.9757 115.034C55.9013 114.944 55.8359 114.876 55.8359 114.876C55.7515 114.788 55.6085 114.803 55.5437 114.907C55.5437 114.907 55.2493 115.376 55.0983 115.564C54.8919 115.821 54.6835 116.067 54.4446 116.257C54.3607 116.323 54.2926 116.394 54.2363 116.437C54.1801 116.479 54.1567 116.483 54.1453 116.481C54.1493 116.481 54.1349 116.477 54.1145 116.449C54.094 116.42 54.0738 116.373 54.065 116.336C54.0416 116.239 54.1193 116.069 54.1823 115.842C54.2768 115.502 54.5602 114.786 54.5602 114.786C54.6494 114.561 54.3325 114.41 54.2212 114.624C54.2212 114.624 53.8053 115.416 53.5691 115.742C53.3765 116.007 53.1372 116.248 52.8945 116.498C52.7971 116.598 52.7206 116.674 52.6583 116.749C52.5524 116.863 52.4927 116.873 52.3982 116.809C52.3565 116.752 52.3491 116.609 52.3469 116.434C52.343 116.122 52.401 115.8 52.4942 115.491C52.6561 114.953 52.9007 114.437 53.1804 113.918C53.337 113.628 53.5744 113.244 53.8172 112.866C54.0535 112.761 54.2976 112.662 54.5421 112.558C54.9821 112.37 55.3961 112.212 55.8496 112.06C56.3262 111.901 56.8055 111.741 57.2861 111.591C57.4829 111.529 57.4677 111.297 57.2627 111.298C57.2396 111.296 57.2163 111.298 57.194 111.304C57.194 111.304 56.2601 111.54 55.7555 111.709C55.2929 111.864 54.8471 112.014 54.3976 112.205C54.3303 112.234 54.2615 112.263 54.1932 112.291C54.5043 111.823 54.7615 111.449 54.7636 111.446L54.7661 111.442V111.442C54.8976 111.234 54.5994 111.026 54.4569 111.227L54.4567 111.227C54.4567 111.227 53.8676 111.979 53.5817 112.417C53.5446 112.474 53.5068 112.538 53.4675 112.607C53.2792 112.697 53.0931 112.797 52.9135 112.913C52.7171 113.039 52.5282 113.191 52.3677 113.374C52.1891 113.577 52.0213 113.889 52.0213 113.889C51.8971 114.113 52.2482 114.278 52.3684 114.052C52.3684 114.052 52.543 113.747 52.6469 113.629C52.7764 113.481 52.9353 113.352 53.1062 113.241C52.8595 113.65 52.497 114.186 51.8768 114.909C51.8254 114.969 51.7722 115.032 51.7229 115.094C51.7181 115.04 51.7107 114.985 51.7068 114.931C51.6801 114.564 51.6441 114.175 51.6069 113.792C51.5756 113.469 51.5351 113.148 51.489 112.828C51.6214 112.466 51.7508 112.1 51.8836 111.724C52.0256 111.321 52.1299 110.993 52.2186 110.548C52.2671 110.305 52.2546 110.059 52.2488 109.888C52.2433 109.726 52.0932 109.724 52.0817 109.886C52.0659 110.111 52.0436 110.221 52.0106 110.387C51.9305 110.788 51.7985 111.16 51.654 111.57C51.5744 111.795 51.4885 112.022 51.3997 112.25C51.3799 112.127 51.36 112.005 51.3394 111.883C51.2458 111.328 51.1038 110.827 51.0597 110.325C51.0346 110.041 51.0153 109.767 51.0777 109.536C51.1241 109.365 51.1794 109.243 51.2556 109.192C51.3135 109.153 51.4417 109.129 51.506 109.145C51.588 109.167 51.6456 109.206 51.7087 109.286C51.7871 109.385 51.8252 109.434 51.8826 109.509C51.978 109.633 52.1096 109.573 52.0591 109.444C52.0136 109.328 51.994 109.252 51.9173 109.144C51.802 108.981 51.7019 108.908 51.5902 108.856C51.5274 108.827 51.4585 108.802 51.3876 108.788L51.3876 108.788ZM48.5209 110.782C48.5987 110.787 48.7192 110.869 48.7473 110.931C48.7842 111.011 48.7845 111.113 48.757 111.246C48.7294 111.379 48.6748 111.531 48.6362 111.691C48.5003 112.252 48.2252 112.791 47.9957 113.367C47.5846 114.397 47.1791 115.313 46.7688 116.359C46.7048 116.522 46.5118 117.041 46.4482 117.204C46.4773 116.701 46.5624 115.945 46.6209 115.459C46.7087 114.731 46.8142 114.007 46.9927 113.307C47.1178 112.816 47.2632 112.333 47.4744 111.891C47.6276 111.57 47.7726 111.256 47.9915 111.059C48.1659 110.902 48.3707 110.771 48.5209 110.782ZM51.4305 116.041C51.445 116.212 51.4632 116.383 51.465 116.551C51.4692 116.937 51.4713 117.315 51.3988 117.665C51.3427 117.935 51.2777 118.195 51.146 118.378C51.0258 118.544 50.8218 118.721 50.6472 118.781C50.4608 118.845 50.2763 118.835 50.0837 118.782C49.9563 118.746 49.8707 118.708 49.7853 118.637C49.7247 118.587 49.6547 118.526 49.644 118.447C49.6332 118.368 49.7163 118.243 49.7294 118.224C50.0447 117.76 50.2073 117.534 50.4644 117.202C50.7694 116.807 51.0996 116.426 51.4305 116.041V116.041ZM56.054 117.113C56.056 117.155 56.0663 117.199 56.0672 117.241C56.0833 118.002 56.0393 118.767 55.9288 119.518C55.8773 119.869 55.8391 120.208 55.707 120.478C55.6095 120.677 55.4893 120.86 55.351 120.933C55.2558 120.984 55.1151 120.996 55.0452 120.964C54.9169 120.906 54.79 120.724 54.7427 120.55C54.6459 120.194 54.7773 119.755 54.8956 119.316C55.0162 118.868 55.2375 118.438 55.4694 118.009C55.6383 117.696 55.837 117.398 56.054 117.113V117.113ZM41.9368 116.708C41.907 116.798 41.8828 116.889 41.8521 116.978C41.5597 117.827 41.2237 118.661 40.8201 119.456C40.6657 119.76 40.4532 120.158 40.2647 120.434C40.2935 120.3 40.3236 120.157 40.3682 120.022C40.6162 119.275 40.9199 118.55 41.276 117.845C41.477 117.447 41.6938 117.064 41.9368 116.708V116.708ZM38.579 116.384C38.6239 116.496 38.6795 116.6 38.7163 116.713C38.8865 117.237 38.8652 117.838 38.8526 118.44C38.8355 119.25 38.7116 120.064 38.5512 120.87C38.4006 121.627 38.2111 122.313 37.9532 123.041C37.8992 123.194 37.83 123.352 37.7694 123.465C37.739 123.522 37.7076 123.564 37.6855 123.583C37.6635 123.602 37.6592 123.603 37.6398 123.602C37.6153 123.601 37.6032 123.596 37.5778 123.572C37.5523 123.548 37.5205 123.502 37.4918 123.441C37.4345 123.319 37.3732 123.15 37.3508 122.999C37.2635 122.414 37.3333 121.753 37.3971 121.073C37.4847 120.141 37.6265 119.212 37.863 118.314C38.0278 117.688 38.248 117.075 38.5233 116.492C38.5407 116.456 38.5614 116.421 38.579 116.384V116.384Z" fill="#5A6259"/>
</g>
<g clip-path="url(#clip1_480_618)">
<path d="M137.777 73.5531L137.679 73.6002L137.684 73.7741L137.54 73.7106L137.563 73.6011L137.624 73.6666L137.678 73.5867L137.627 73.5518L137.777 73.5531V73.5531ZM136.721 73.0494L137.081 73.246L137.11 73.4765L136.974 73.5995L137.021 73.8491L137.124 73.8409L137.053 73.8991L136.666 73.7455L136.656 73.9185L137.246 73.9737L137.381 73.8898L137.584 74.1322L138.113 73.6113L138.134 73.3716L138.274 73.1954L138.38 73.3348L138.589 73.3479L138.755 73.7491L138.548 74.143L138.93 74.609L138.947 74.9441L139.125 74.9983L139.362 74.8872L139.617 75.0575L139.524 75.434L139.597 75.5004L139.464 75.6504L139.451 75.9164L139.745 76.2889L139.754 76.6247L139.577 76.8026L139.398 76.7345L139.32 76.9094L139.152 76.9308L139.1 76.94L138.921 76.9512L138.699 77.2741L138.172 77.3859L138.157 77.5644L137.974 77.7959L137.876 77.6854L137.678 77.7736H137.649L137.443 77.9268L136.934 78.0343L136.769 77.7525L136.574 77.8975L136.399 77.8814L136.17 78.1583L136.233 77.9982L136.087 77.8936L135.589 78.0386L135.551 78.2162L135.448 78.2375L135.241 78.1007L135.113 78.2204L134.86 78.0603L134.794 78.2336L134.624 78.0906L134.259 78.1928L134.222 78.0396L134.118 78.0051L134.165 77.8387L133.933 77.9817L133.954 77.8752L133.534 77.7108L133.275 77.7686L133.227 77.7048L133.1 77.8104L132.961 77.7354L133.01 77.5569L132.936 77.5233L132.861 77.1182L133.094 76.9078L133.325 76.9811L133.742 76.8654L133.851 76.5674L133.847 76.2794L133.767 76.2396L133.813 76.091L133.675 76.0482L133.585 75.5632L133.788 75.2584L133.524 75.0749L133.458 74.6728L133.254 74.5544L133.121 74.3387L133.873 74.3061L133.922 74.4982L134.18 74.5317L134.486 74.4406L134.185 73.8649L134.265 73.6561L134.148 73.5988L134.749 73.2782L135.161 73.2361L135.22 73.3292L135.111 73.5699L135.145 73.8359L135.398 73.7409L135.805 73.8402L135.989 73.8024L135.978 73.6173L136.142 73.5416L136.519 73.055L136.721 73.0494V73.0494Z" fill="#581646" fill-opacity="0.54"/>
<path d="M132.385 81.1146L132.733 80.8746L132.888 81.1137L133.068 81.0933L133.319 81.2909L133.414 81.185H133.695L133.745 80.9775L133.878 81.0127L133.811 80.895L133.877 80.8325L133.983 81.0078L134.119 81.0107V80.8848L134.883 80.6158L134.878 80.7477L135.085 80.896L135.089 80.7819L135.4 80.7013L135.532 80.531L135.586 80.7608L135.778 80.7457L135.913 80.6145L135.799 80.4461L135.831 80.1758L136.15 80.2748L136.268 80.21L136.293 80.2788L136.354 80.1466L136.577 80.1002L136.776 80.1837L136.912 80.4017L137.056 80.411L137.057 80.5399L137.457 80.4826H137.505L137.505 80.674L137.623 80.7408L137.983 80.4695L138.221 80.6691L138.198 80.8457L138.05 80.9312L138.201 81.1436L138.101 81.2274L138.108 81.5303L137.989 81.7608L137.784 81.7124L137.633 81.9137L137.451 81.8976L137.461 81.9669L136.742 82.1771L136.767 82.2895L136.632 82.1761L136.463 82.3037L136.403 82.0856L136.272 82.1097L136.217 82.2504L135.962 82.1268L135.906 82.2665L135.994 82.5305L135.839 82.593L135.562 82.5016L135.399 82.5789L135.417 82.7788L135.001 82.9343L134.932 82.7916L134.769 82.8189L134.712 82.911L134.732 82.6049L134.607 82.6463L134.366 82.5398L134.023 82.5667L133.86 82.7525L133.879 82.5105L133.675 82.5125L133.488 82.2435L133.321 82.2412L133.36 82.0251L133.024 81.9479L133.052 81.7184L132.903 81.5645L132.658 81.8644L132.425 81.8604L132.329 81.6542L132.347 81.1577L132.467 81.1255L132.385 81.1146Z" fill="#581646" fill-opacity="0.54"/>
<path d="M134.455 79.1753L134.48 79.1944L134.525 79.3654L134.432 79.4785L134.669 79.6373L134.764 79.9333L134.61 80.0332L134.634 80.1049L134.735 80.1161L134.855 80.2473L134.765 80.2552L134.683 80.2907L134.188 80.5235L133.866 80.4147L133.689 80.0415L133.541 80.0859L133.327 79.9767L133.311 79.9928L133.307 79.9806L133.371 79.8968L133.389 79.806L133.552 79.7978L133.536 79.4877L133.642 79.3289L133.751 79.227L133.786 79.2066L133.876 79.1418L133.917 79.1329L134.153 79.1763L134.288 79.0244L134.37 79.0852L134.435 79.1296L134.455 79.1753Z" fill="#581646" fill-opacity="0.54"/>
<path d="M128.327 80.4987L128.544 80.6006L128.826 80.5329L128.846 80.8443L129.28 80.8594L129.373 80.959L129.408 80.9702L129.708 80.452L129.917 80.354L129.943 80.5003L130.225 80.3632L130.194 80.4642L130.33 80.7013L130.556 80.6779L130.735 80.7647L130.995 80.668L131.097 80.8565L131.06 81.0843L131.199 81.2757L131.468 81.2968H131.51L132.076 81.1698L132.132 81.2425L132.296 81.035V81.0584L132.386 81.1149L132.467 81.1261L132.347 81.1583L132.33 81.6545L132.425 81.8607L132.659 81.8646L132.904 81.5647L133.053 81.7186L133.025 81.9478L133.361 82.0251L133.322 82.2411L133.488 82.2431L133.675 82.5124L133.88 82.5104L133.86 82.7524L134.024 82.5667L134.366 82.5397L134.607 82.6462L134.732 82.6051L134.713 82.9113L134.77 82.8189L134.932 82.7919L135.002 82.9343L135.418 82.7788L135.295 83.1641V83.1973L135.32 83.3026L135.516 83.2003L135.465 83.2615L135.551 83.462L135.373 83.7846L135.664 83.953L135.577 84.1703L135.458 84.2104L135.587 84.3407L135.484 84.3897L135.428 84.6146L135.515 84.9223L135.041 85.0292L134.946 84.9013L134.813 84.9033L134.664 85.1361L134.31 85.0762L134.279 85.2272L134.1 85.2722L134.031 85.436L133.841 85.4179L133.578 85.6333L133.943 85.9197L134.08 85.7631L134.142 85.799H134.204L134.294 85.8648L134.289 85.8986L134.276 86.062H134.254L134.269 86.3452L134.054 86.5007L134.298 86.9535L134.204 87.0978L134.234 87.6723L134.354 87.714L134.384 88.1876L134.574 88.5894L134.499 88.7489L133.98 88.6357L133.715 88.4763L132.992 88.6061L132.974 88.4664L132.659 88.3812L132.786 88.1668L132.621 87.9834L132.774 87.6983L132.983 87.6864L133.218 87.4888L133.009 87.1297L133.026 86.8552L132.731 86.8502L132.738 86.9199L132.571 86.8483L132.74 86.5536L132.712 86.0574L132.852 86.0246L133.159 85.6596L133.078 85.4669L132.884 85.434L132.786 85.2962L132.707 85.4379L132.817 85.6047L132.629 85.6076L132.498 85.1535L132.366 85.0496L132.24 85.0795L131.912 84.5988L131.674 84.7619L131.589 84.708L131.556 84.776L131.551 84.704L131.135 84.9187L130.806 84.6678L130.654 84.6629L130.579 84.752L130.537 84.6461L130.155 84.677L130.068 84.756L130.041 85.0558L129.91 84.9829L129.965 85.1216L129.904 85.1377L129.685 84.8421L129.588 84.4932L129.693 84.1601L129.598 83.6255L129.268 83.2306L129.108 83.2858L129.016 83.1865L128.584 83.319L128.555 83.2046L128.7 82.9547L128.42 82.8583L128.246 83.1263L128.181 83.0872L127.795 83.2799L127.702 83.1516L127.259 82.9471L127.179 82.8037L127.18 82.2362L126.928 81.6058L127.093 81.4207L127.015 81.2918L127.064 81.1669L126.635 80.9423L126.675 80.8334L126.538 80.6167L126.807 80.5138L127.075 80.6582L127.352 80.623L127.471 80.9637L127.695 81.0847L127.989 80.7137L128.165 80.6874V80.648L128.327 80.4987V80.4987ZM124.543 81.1083L124.587 81.0498L124.404 80.8229L124.471 80.7673L124.41 80.6697L124.58 80.5707L124.635 80.6263L124.637 80.5536L124.747 80.6414L124.915 80.6L124.911 80.5234L125.165 80.4316L125.015 80.2317L125.418 80.061L125.51 80.1377L125.47 80.3405L125.603 80.3688L125.536 80.4395L125.269 80.6634L125.032 80.7308L125.072 80.864L124.843 81.2487L124.543 81.1083V81.1083Z" fill="#581646" fill-opacity="0.54"/>
<path d="M142.484 80.0487L142.534 80.3453L142.418 80.5896L142.619 80.6974L142.65 80.7014L142.737 80.6198L142.817 80.6803L142.826 80.7086H143.069L143.297 81.0401L143.549 81.0088L143.686 81.0815L143.864 80.8253L143.748 80.6146L143.905 80.6599L144.187 80.5412L144.31 80.6349L144.561 80.6178L144.698 80.7287L144.685 80.9868L144.724 80.8908L145.174 80.9513L145.595 81.6671L145.506 81.7506L145.6 81.8585L145.557 81.9177L145.688 81.8513L146.138 81.9167L145.977 82.2925L145.861 82.2817L145.55 82.6092L145.564 82.7628L145.676 82.8147L145.628 82.9183L145.751 82.9755L145.866 83.2323L146.145 83.133L146.654 83.2984L146.59 83.5641L146.788 83.643L146.816 83.8275L146.593 84.3911L147.011 84.8389L146.993 84.9669L146.726 85.0477L146.719 85.1507L146.535 84.9639L146.377 85.0017L146.204 85.517L145.794 85.6156L145.679 85.8103L145.548 85.8333L145.488 85.9767L145.64 86.3565L145.357 86.4291L145.274 86.6452L145.407 86.7616L145.316 86.8842L145.146 86.8244L145.226 86.6951L145.151 86.5219L144.947 86.4729L144.938 86.6225L144.818 86.6521L144.629 86.5455L144.588 86.3515L144.648 86.1263L144.515 86.1292L144.496 85.0448L144.326 84.9807L144.3 84.886L143.561 84.715L143.489 84.9159L143.603 85.0468L143.451 85.3782H143.484L143.678 85.3933L143.429 85.5798L143.236 85.5449L143.212 85.6436L143.16 85.54L142.955 85.5091L142.682 85.5729L142.84 85.1786L142.692 85.1757L142.555 84.8968L142.669 84.615L142.353 84.6268L142.382 84.5068L142.105 84.4799L141.853 84.204L141.495 84.2697L141.339 83.9445L141.061 84.1208L140.76 83.8985L140.671 84.0688H140.771L140.82 84.1829L140.59 84.4059L140.325 84.3158L139.981 84.5479L139.879 84.419L139.915 84.2609L139.585 84.1629L139.5 84.0317L139.588 83.8143L139.349 83.4026L139.127 83.5069L139.047 83.3635L139.112 83.3112L138.939 83.2813L138.908 83.158L138.988 83.0656L138.83 83.1498L138.692 83.0455L138.678 82.8861L138.317 82.8601L138.427 82.7818L138.392 82.5819L138.262 82.3027L137.956 82.0032L137.989 81.7608L138.108 81.5303L138.102 81.2275L138.201 81.1436L138.05 80.9312L138.199 80.8457L138.221 80.6691L138.389 80.7731L138.373 80.9322L138.535 81.1045L138.732 81.0844L139.143 81.2183L139.24 81.1298L139.159 81.0259L139.201 80.9312L139.554 80.9967L139.607 80.9019L139.733 81.019L139.846 80.8868L140.024 81.0088L140.306 80.7116L140.547 80.6925L140.742 80.9845L140.928 80.9746L141.017 80.7882L141.115 80.9361L141.413 80.753L141.429 80.5833L141.465 80.6017L141.955 80.4169L142.23 80.1101L142.434 80.1243L142.448 80.0477L142.484 80.0487Z" fill="#581646" fill-opacity="0.54"/>
<path d="M143.059 80.4835L143.218 80.6074L143.448 80.5216L143.48 80.6236L143.704 80.4743L143.748 80.6143L143.864 80.8251L143.686 81.0809L143.549 81.0083L143.297 81.0395L143.069 80.7081H142.826L142.817 80.6798L142.737 80.6193L142.65 80.7008L142.619 80.6969L142.418 80.589L142.778 80.5647L142.96 80.3427L143.059 80.4835V80.4835ZM141.482 75.3229L141.623 75.4564L141.649 75.8888L142.222 76.1341L142.263 76.2634L142.94 76.2775L143.014 76.603L143.311 76.4393L143.503 76.6813L143.216 76.9506L143.357 77.1538L143.128 77.2199L143.156 77.5254L142.99 77.5132L142.891 77.8026L143.005 77.9111L142.943 78.1686L142.656 78.5283L142.704 78.6033L142.848 78.5546L142.888 78.6529L142.669 79.0659L142.522 79.0547L142.388 79.351L142.175 79.447L142.203 79.8926L142.449 80.0471L142.434 80.1237L142.231 80.1096L141.956 80.4164L141.466 80.6009L141.429 80.5828L141.413 80.7521L141.116 80.9356L141.017 80.7873L140.929 80.9738L140.743 80.9839L140.548 80.6916L140.307 80.7107L140.025 81.008L139.847 80.886L139.734 81.0178L139.607 80.9011L139.554 80.9958L139.201 80.931L139.159 81.0257L139.24 81.1296L139.143 81.2184L138.731 81.0846L138.854 80.8176L138.739 80.758L138.778 80.5999L138.831 80.5312L138.789 80.3053L139.059 80.0771L139.014 80.0751L138.917 80.0215L138.956 79.6821L139.071 79.3737L139.212 79.3928L139.271 79.1238L139.151 79.0235L138.952 79.0284L138.933 78.9446L138.803 78.9942L138.672 79.0692L138.586 78.9436L138.504 78.9913L138.365 78.7302L138.579 78.5539L138.6 78.2935L138.889 78.1781L138.832 77.9397L138.901 77.9042L138.915 77.9913L139.094 77.9032L138.839 77.6434L138.598 77.674L138.619 77.9085L138.459 77.9999L138.37 77.8996L138.24 77.9463L138.155 77.7496L137.974 77.7963L138.157 77.5649L138.172 77.3863L138.699 77.2745L138.92 76.9516L139.1 76.9404L139.152 76.9312L139.32 76.9098L139.398 76.7349L139.577 76.803L139.753 76.6251L139.745 76.2893L139.45 75.9168L139.464 75.6508L139.597 75.5008L140.219 75.4844L140.282 75.3601L140.735 75.4824L141.169 75.0938L141.363 75.1447L141.482 75.3229V75.3229Z" fill="#581646" fill-opacity="0.54"/>
<path d="M140.59 84.4057L140.82 84.1828L140.771 84.0687H140.671L140.76 83.8984L141.061 84.1207L141.339 83.9444L141.495 84.2696L141.853 84.2039L142.105 84.4797L142.382 84.5067L142.353 84.6267L142.669 84.6149L142.555 84.8967L142.692 85.1755L142.84 85.1785L142.682 85.5727L142.955 85.5089L143.16 85.5399L143.212 85.6434L143.236 85.5448L143.429 85.5796L143.678 85.3932L143.484 85.3781H143.451L143.603 85.0466L143.489 84.9158L143.561 84.7148L144.3 84.8858L144.326 84.9805L144.496 85.0447L144.515 86.1291L144.648 86.1261L144.588 86.3514L144.22 86.454L144.184 86.865L143.78 87.06L143.72 87.399L143.51 87.5858L143.606 87.7081L143.544 87.886L143.286 88.0478L143.396 88.3631L143.205 88.5377L143.009 88.5627L142.927 89.0037L142.753 89.174L143.062 89.3759L143.002 89.4907L142.878 89.4404L142.912 89.5936L142.826 89.6284L142.898 89.6896L142.785 89.7994L142.873 90.2463L143.088 90.2039L143.352 90.6787L143.327 90.9227L143.569 90.8911L143.7 91.0559L143.569 91.3761L143.857 91.5014L143.828 91.7635L143.708 91.7842L143.629 92.0489L143.464 92.1719L143.488 92.2577L143.603 92.2518L143.604 92.3863L143.417 92.5908L143.262 92.6668L142.901 92.5033L142.816 92.7276L142.206 92.6046L141.99 92.8289L141.963 93.038L141.84 92.8867L141.615 92.8151L141.52 92.9446L141.164 93.0222L141.084 93.1304L140.942 92.9282L141.05 92.8387L141.041 92.7197L140.892 92.5928L140.974 92.4445L140.867 92.4178L140.81 92.166L140.3 91.8223L140.236 91.9595L140.078 92.0163L140.029 91.8361L140.189 91.5948L139.837 91.2153L139.778 91.1739L139.628 91.2864L139.39 91.1838L139.142 91.2074L139.116 90.9868L138.895 91.0095L138.684 90.5218L138.494 90.5337L138.139 90.3292L138.058 90.1532L137.889 90.1384L138.011 89.9181L138.02 89.6294L138.452 89.3315L138.363 89.2365L138.547 89.0471L138.849 88.9422L138.711 88.8034L138.736 88.5716L138.472 88.3335L138.148 88.3733L138.159 88.2086L137.92 87.8929L138.017 87.9077L138.071 87.738L138.162 87.8025L138.357 87.6496L138.385 87.425L138.471 87.4201L138.422 87.3096L138.509 86.9607L138.574 87.257L139.364 87.2221L139.799 87.0551V87.0153L139.63 86.8532L139.896 86.7059L139.874 86.5974L139.642 86.3175L139.685 86.2606L139.575 86.2337L139.653 86.14L139.408 86.0324L139.725 85.9249L139.684 85.8141L139.864 85.7233L139.96 85.7921L140.075 85.7332L140.592 85.3143L140.557 85.0374L140.406 85.0187L140.303 85.1413L140.265 85.0506L140.593 84.8378L140.509 84.6849L140.634 84.5238L140.59 84.4057Z" fill="#581646" fill-opacity="0.54"/>
<path d="M135.418 82.7788L135.399 82.5789L135.562 82.5016L135.839 82.593L135.994 82.5306L135.907 82.2665L135.963 82.1268L136.218 82.2504L136.273 82.1097L136.403 82.0857L136.464 82.3037L136.633 82.1761L136.767 82.2895L136.743 82.1771L137.461 81.967L137.452 81.8976L137.634 81.9137L137.785 81.7125L137.989 81.7608L137.956 82.0031L138.262 82.3027L138.392 82.5819L138.428 82.7818L138.317 82.8601L138.679 82.886L138.692 83.0455L138.831 83.1497L138.988 83.0656L138.909 83.158L138.939 83.2813L139.112 83.3112L139.047 83.3635L139.127 83.5068L139.349 83.4026L139.589 83.8143L139.501 84.0316L139.586 84.1628L139.916 84.2608L139.879 84.419L139.982 84.5479L140.325 84.3158L140.59 84.4058L140.634 84.5239L140.509 84.685L140.593 84.8379L140.266 85.0507L140.303 85.1414L140.406 85.0188L140.557 85.0375L140.592 85.3144L140.075 85.7333L139.96 85.7922L139.864 85.7234L139.684 85.8142L139.725 85.925L139.408 86.0325L139.653 86.1401L139.575 86.2338L139.685 86.2607L139.643 86.3176L139.875 86.5974L139.896 86.706L139.63 86.8533L139.8 87.0154V87.0552L139.364 87.2222L138.574 87.2571L138.509 86.9608L138.422 87.3097L138.471 87.4202L138.386 87.4251L138.357 87.6497L138.162 87.8026L138.072 87.7381L138.018 87.9078L137.92 87.893L138.16 88.2087L138.148 88.3734L138.472 88.3336L138.736 88.5717L138.712 88.8035L138.85 88.9423L138.548 89.0472L138.363 89.2366L138.453 89.3316L138.02 89.6295L138.011 89.9182L137.889 90.1385L137.637 90.2809L137.145 90.2217L137.293 89.9597L137.117 89.4937L137.204 89.4908L137.378 89.0702L137.119 88.6868L136.761 88.5885L136.752 88.4832L136.773 88.3474L136.934 88.2304L136.943 87.9187L137.079 87.7957L136.946 87.5283L137.06 87.5066L137.142 87.1647L137.275 87.2998L137.247 86.9845L137.428 86.8155L137.305 86.654L137.044 86.6412L136.988 86.4998L136.584 86.8164L136.504 87.064L136.145 87.3288L136.059 87.5126L136.182 87.6655L136.084 87.9167L136.139 88.2146L135.54 88.3017L135.18 88.4754L135.075 88.6598L134.499 88.7479L134.574 88.5885L134.383 88.1866L134.353 87.7131L134.234 87.6714L134.204 87.0969L134.297 86.9529L134.053 86.4998L134.268 86.3446L134.254 86.0615H134.276L134.289 85.898L134.294 85.8642L134.204 85.7981H134.141L134.08 85.7622L133.943 85.9188L133.578 85.6327L133.841 85.417L134.031 85.4351L134.1 85.2713L134.278 85.2266L134.309 85.0757L134.664 85.1355L134.812 84.9027L134.946 84.9007L135.041 85.0286L135.515 84.9218L135.428 84.614L135.484 84.3891L135.587 84.3398L135.458 84.2099L135.577 84.1698L135.664 83.9524L135.373 83.7844L135.551 83.4618L135.465 83.2612L135.516 83.2001L135.32 83.3023L135.295 83.1971V83.1639L135.418 82.7788Z" fill="#581646" fill-opacity="0.54"/>
<path d="M133.253 74.5536L133.457 74.672L133.523 75.0741L133.787 75.2579L133.583 75.5627L133.674 76.0478L133.812 76.0905L133.766 76.2391L133.846 76.2789L133.85 76.5666L133.741 76.8646L133.324 76.9806L133.093 76.9073L132.861 77.1177L132.935 77.5229L133.009 77.5564L132.96 77.7349L133.099 77.8099L133.226 77.7047L133.274 77.7685L133.25 77.9572L133.158 77.9967L133.227 78.1295L133.008 78.314L132.94 78.316L132.769 78.2532L132.67 78.4669L132.754 78.7566L132.786 78.8316L132.635 78.9763L132.356 78.8273L132.387 79.0654L132.236 79.1594L132.325 79.2646L132.289 79.3978L132.016 79.7799L132.192 79.8184L132.149 80.2738L131.854 80.4754L131.746 80.3928L131.667 80.5178L131.433 80.4139L131.325 80.5895L131.451 80.8565L131.268 80.8877L131.211 80.8847L131.096 80.8565L130.994 80.668L130.735 80.7647L130.556 80.6782L130.329 80.7013L130.193 80.4642L130.224 80.3636L129.942 80.5007L129.916 80.3543L129.708 80.4523L129.407 80.9706L129.373 80.9594L129.279 80.8594L128.846 80.8443L128.825 80.5329L128.543 80.6006L128.326 80.4987L128.719 80.112L128.58 79.9252L128.659 79.8121L128.283 79.4849L128.447 79.1824L128.328 79.0795L128.156 79.1804L128.052 79.1098L128.164 78.9753L128.115 78.8526L128.279 78.8516L128.199 78.7425L128.335 78.7201L128.039 78.5794L128.23 78.4883L128.12 78.3341L128.282 78.0819L128.117 77.7471H128.155L128.245 77.6629L128.176 77.5959L127.517 77.1391L127.788 76.9563L128.019 76.5137L127.859 76.2513L127.698 76.1954L127.851 76.0823L127.739 75.8317L127.935 75.735L127.833 75.3526L128.131 75.6574L128.756 75.6453L128.683 75.2254L128.823 75.2569L128.98 75.1468L129.105 75.2273L129.162 75.0324L129.824 75.3395L130.344 75.468L130.459 75.5476L130.43 75.9623L130.856 75.9958L131.04 75.8745L131.037 76.1056L131.295 75.905L131.345 75.9846L131.488 75.9429L131.847 75.6482L132.14 75.6607L132.816 75.1488L133.253 74.5536Z" fill="#581646" fill-opacity="0.54"/>
<path d="M137.973 77.7959L138.155 77.7492L138.24 77.9459L138.369 77.8992L138.459 77.9994L138.618 77.908L138.598 77.6736L138.838 77.643L139.094 77.9028L138.915 77.9909L138.901 77.9038L138.831 77.9393L138.888 78.1777L138.599 78.2931L138.579 78.5535L138.364 78.7298L138.504 78.9908L138.585 78.9432L138.672 79.0688L138.803 78.9938L138.932 78.9442L138.952 79.028L139.151 79.0231L139.271 79.1234L139.212 79.3923L139.071 79.3733L138.955 79.6817L138.916 80.021L139.014 80.0746L139.058 80.0766L138.788 80.3048L138.831 80.5307L138.778 80.5994L138.739 80.7576L138.853 80.8171L138.731 81.0841L138.534 81.1042L138.372 80.9319L138.388 80.7727L138.22 80.6688L137.983 80.4692L137.623 80.7405L137.504 80.6741L137.505 80.4824H137.457L137.057 80.5399L137.056 80.4107L136.912 80.4015L136.776 80.1835L136.577 80.0996L136.353 80.146L136.293 80.2782L136.268 80.2095L136.149 80.2739L135.831 80.1749L135.798 80.4452L135.912 80.6136L135.778 80.7448L135.586 80.7599L135.532 80.5301L135.4 80.7004L135.089 80.781L135.085 80.8947L134.878 80.7464L134.883 80.6142L134.119 80.8836V81.0095L133.983 81.0065L133.877 80.8313L133.811 80.8937L133.878 81.0118L133.745 80.9766L133.694 81.1841H133.414L133.319 81.29L133.068 81.0927L132.888 81.1127L132.733 80.874L132.385 81.1137L132.295 81.0572V81.0338L132.131 81.2413L132.075 81.1686L131.509 81.2956H131.467L131.197 81.2745L131.059 81.0831L131.096 80.8553L131.211 80.8836L131.267 80.8865L131.451 80.8553L131.324 80.5883L131.433 80.4127L131.667 80.5166L131.746 80.3916L131.854 80.4745L132.149 80.2726L132.192 79.8172L132.016 79.7787L132.288 79.3966L132.325 79.2631L132.236 79.1579L132.387 79.0638L132.356 78.8261L132.635 78.9747L132.786 78.8301L132.754 78.7551L132.67 78.4654L132.769 78.2517L132.939 78.3145L133.008 78.3125L133.227 78.128L133.158 77.9952L133.25 77.9557L133.273 77.767L133.532 77.7091L133.952 77.8735L133.931 77.98L134.163 77.837L134.117 78.0034L134.221 78.0379L134.257 78.1912L134.623 78.0889L134.792 78.2319L134.859 78.0586L135.111 78.2188L135.24 78.0991L135.447 78.2359L135.549 78.2145L135.587 78.0369L136.086 77.8919L136.232 77.9965L136.169 78.1566L136.397 77.8798L136.573 77.8959L136.768 77.7509L136.933 78.0327L137.441 77.9251L137.647 77.7719H137.677L137.874 77.6838L137.973 77.7959V77.7959ZM133.918 79.1332L133.877 79.1424L133.787 79.2072L133.752 79.2276L133.643 79.3299L133.536 79.4887L133.553 79.7988L133.39 79.807L133.372 79.8977L133.308 79.9816L133.312 79.9938L133.328 79.9776L133.542 80.0868L133.69 80.0424L133.867 80.416L134.189 80.5248L134.684 80.2917L134.766 80.2565L134.856 80.2483L134.736 80.1171L134.635 80.1059L134.61 80.0342L134.765 79.9342L134.669 79.6383L134.433 79.4795L134.526 79.3664L134.481 79.1954L134.436 79.1306L134.371 79.0862L134.289 79.0254L134.154 79.177L133.918 79.1332V79.1332Z" fill="#581646" fill-opacity="0.54"/>
<path d="M127.751 74.4005L127.852 74.7487L127.692 74.9437L127.8 75.0766L127.744 75.1164L127.832 75.3528L127.935 75.7352L127.739 75.8319L127.85 76.0824L127.698 76.1956L127.859 76.2515L128.019 76.5139L127.788 76.9564L127.516 77.1393L128.176 77.596L128.245 77.6631L128.155 77.7473H128.117L128.282 78.082L128.12 78.3342L128.23 78.4884L128.039 78.5795L128.334 78.7203L128.199 78.7426L128.279 78.8518L128.115 78.8528L128.164 78.9754L128.052 79.1099L128.156 79.1806L128.328 79.0797L128.447 79.1826L128.283 79.4851L128.659 79.8123L128.58 79.9254L128.719 80.1122L128.326 80.4989L128.163 80.6462V80.6853L127.987 80.7116L127.693 81.0825L127.47 80.9615L127.351 80.6208L127.074 80.656L126.805 80.512L126.537 80.6146L126.364 80.273L126.209 80.3091L126.12 80.2335L125.94 80.4525L125.792 80.3726L125.627 80.4837L125.536 80.4403L125.603 80.3696L125.47 80.3413L125.509 80.1385L125.418 80.0618L125.015 80.2325L125.165 80.4321L124.911 80.5238L124.915 80.6008L124.746 80.6419L124.637 80.5541L124.635 80.6268L124.579 80.5715L124.41 80.6702L124.47 80.7682L124.404 80.8234L124.587 81.0503L124.543 81.1085L124.443 80.9523L124.259 81.023L124.081 80.9132L124.022 80.6662L123.668 80.2457L123.66 80.0678L123.375 80.0346L123.316 79.9497L123.105 80.0467L122.982 79.686L122.879 79.6709L122.959 79.5144L122.938 79.1806L122.923 79.0261L122.82 78.9623L123.084 78.6818L122.927 78.2471L122.716 78.1225L122.525 77.2438L123.922 76.455L125.892 75.0733L126.573 74.7764L126.484 74.561L126.59 74.4423L126.514 74.5261L126.613 74.6507L126.703 74.5925L126.593 74.7336L126.656 74.6803L126.667 74.7918L126.71 74.6662L126.772 74.708L126.73 74.6386L126.836 74.6662L126.791 74.511L126.742 74.5426L126.818 74.4709L126.669 74.4341L126.826 74.4732L126.857 74.6711L127.751 74.4005Z" fill="#581646" fill-opacity="0.54"/>
</g>
<g clip-path="url(#clip2_480_618)">
<path d="M170.198 76.3917C175.563 76.3902 180.762 78.271 184.91 81.7135C189.058 85.1561 191.897 89.9475 192.945 95.2712C193.993 100.595 193.183 106.121 190.655 110.909C188.127 115.697 184.037 119.449 179.081 121.527C174.125 123.605 168.61 123.88 163.476 122.305C158.343 120.729 153.907 117.402 150.927 112.888C147.946 108.375 146.604 102.956 147.13 97.5536C147.656 92.1516 150.017 87.1011 153.81 83.2629C155.959 81.081 158.514 79.3507 161.326 78.1715C164.139 76.9923 167.154 76.3874 170.198 76.3917V76.3917ZM165.611 103.628C165.709 102.796 163.261 99.6049 162.815 98.0779C161.857 96.551 161.518 94.085 162.559 92.455C162.978 91.8099 162.796 91.2488 162.796 90.3517C162.796 81.4802 178.151 81.4802 178.151 90.3517C178.151 91.474 177.898 91.7374 178.498 92.6421C179.502 94.1156 178.985 96.7342 178.121 98.1008C177.578 99.6774 175.027 102.731 175.205 103.636C175.363 108.186 165.584 108.037 165.611 103.636V103.628ZM153.916 111.29C155.142 109.915 157.345 109.854 160.016 108.48C161.024 107.964 162 107.386 162.94 106.751C166.041 110.599 168.599 114.828 167.761 119.749C168.567 119.85 169.379 119.901 170.191 119.902C170.398 119.902 170.602 119.902 170.809 119.902C170.621 114.122 173.971 109.896 177.521 106.3C179.338 107.519 181.3 108.5 183.361 109.221C185.104 109.809 186.149 110.186 186.756 110.862C188.738 107.821 189.863 104.291 190.012 100.652C190.161 97.0125 189.327 93.4008 187.6 90.2045C185.874 87.0082 183.32 84.348 180.212 82.5095C177.105 80.6709 173.561 79.7233 169.961 79.7685C166.362 79.8138 162.842 80.85 159.781 82.7661C156.719 84.6822 154.231 87.4057 152.584 90.6444C150.936 93.883 150.192 97.5145 150.43 101.149C150.668 104.784 151.879 108.284 153.935 111.274L153.916 111.29Z" fill="white" fill-opacity="0.57"/>
</g>
<defs>
<clipPath id="clip0_480_618">
<rect width="32.4503" height="16.7526" fill="white" transform="translate(27.8145 108.557)"/>
</clipPath>
<clipPath id="clip1_480_618">
<rect width="24.5033" height="20.1031" fill="white" transform="translate(122.517 73.0413)"/>
</clipPath>
<clipPath id="clip2_480_618">
<rect width="46.3576" height="46.9072" fill="white" transform="translate(147.02 76.3917)"/>
</clipPath>
</defs>
</svg>
